<svg height="19.96mm" viewBox="0 0 283.46 56.57" width="100mm" xmlns="http://www.w3.org/2000/svg"><g fill="#fff"><path d="m155.88.93.12 45.59-32.06-45.52h-6.2v4.92a30 30 0 0 0 -17.85-5.92 28.8 28.8 0 0 0 -21 8.74 28.45 28.45 0 0 0 -20.83-8.74 29.28 29.28 0 0 0 -15.06 4.11 27.25 27.25 0 0 0 -14.6-4.11 27.92 27.92 0 0 0 -28.4 28.25 28 28 0 0 0 28.47 28.25 28.51 28.51 0 0 0 14.67-4 29.06 29.06 0 0 0 14.92 4 28.46 28.46 0 0 0 20.86-8.74 28.53 28.53 0 0 0 20.9 8.81 30.75 30.75 0 0 0 18-5.83v4.84h5.91l-.05-10.58a26 26 0 0 0 2.76-4.61 27 27 0 0 0 2.44-10.55h-5.27l-.07-14.68h1.95a23.31 23.31 0 0 0 -2-3.33v-2.21l32.51 45.89h5.9l-.12-54.59zm-127.48 50.18c-12.69 0-22.35-10-22.35-22.93 0-12.69 9.59-22.79 22.35-22.79a21.09 21.09 0 0 1 9.79 2.36 28 28 0 0 0 -8.6 20.65v.07a27.76 27.76 0 0 0 8.66 20.31 21.47 21.47 0 0 1 -9.85 2.33zm29.73 0a22.61 22.61 0 0 1 -10.13-2.34 24 24 0 0 0 5.55-7.91h-6.55a22.68 22.68 0 0 1 -3.89 4.55 22.93 22.93 0 0 1 -7.38-17.16v-.07a22.92 22.92 0 0 1 7.32-17 20.59 20.59 0 0 1 3.95 4.75h6.57a27.57 27.57 0 0 0 -5.8-8.09 22.34 22.34 0 0 1 10.29-2.45 22 22 0 0 1 17.22 8.05 28.31 28.31 0 0 0 -4 14.74 28.53 28.53 0 0 0 4 14.84 21.87 21.87 0 0 1 -17.15 8.09zm22.35-22.86a23.79 23.79 0 0 1 -1.58 8.56 24.8 24.8 0 0 1 -1.51-8.63 24.26 24.26 0 0 1 1.5-8.52 23.75 23.75 0 0 1 1.59 8.59zm37.32 6.56v8.09a22.39 22.39 0 0 1 -3.39 3.35 23.67 23.67 0 0 1 -14.6 4.94 22.25 22.25 0 0 1 -17.33-8.11 28.6 28.6 0 0 0 4-14.83 28.45 28.45 0 0 0 -4-14.82 22.7 22.7 0 0 1 30-4.21 23.18 23.18 0 0 1 5.34 4.9v15.68h-23.17v5z"/><path d="m164.52.96h6.05v54.58h-6.05z"/><path d="m173.75 6.34h13.42v49.2h6.13v-49.2h13.49v-5.38h-33.04z"/><path d="m212.14 55.54h30.24v-5.38h-24.19v-19.48h24.05v-5.38h-24.05v-18.96h24.19v-5.38h-30.24z"/><path d="m283.46 6.34v-5.38h-30.24v54.58h30.24v-5.38h-24.19v-19.48h24.05v-5.38h-24.05v-18.96z"/></g></svg>