<svg height="43.82" viewBox="0 0 337.31 43.82" width="337.31" xmlns="http://www.w3.org/2000/svg"><g fill="#727171"><path d="m23.93 21.34a18.9 18.9 0 0 1 -.6 4.8 10.61 10.61 0 0 1 -2 4 9.92 9.92 0 0 1 -3.73 2.86 13.5 13.5 0 0 1 -5.6 1.06 13.52 13.52 0 0 1 -5.67-1.06 9.92 9.92 0 0 1 -3.71-2.82 10.75 10.75 0 0 1 -2-4 18.9 18.9 0 0 1 -.6-4.8v-19.27h3.04v18.48a20.8 20.8 0 0 0 .33 3.57 10.39 10.39 0 0 0 1.27 3.52 7.67 7.67 0 0 0 2.69 2.68 8.88 8.88 0 0 0 4.65 1.06 8.86 8.86 0 0 0 4.61-1.06 7.59 7.59 0 0 0 2.69-2.68 10.41 10.41 0 0 0 1.28-3.52 21.79 21.79 0 0 0 .32-3.57v-18.48h3.06z"/><path d="m30.94 12.94h2.78v3.56h.09a7.29 7.29 0 0 1 1.63-1.83 10 10 0 0 1 2.11-1.27 10.56 10.56 0 0 1 2.39-.75 13 13 0 0 1 2.45-.24 12.53 12.53 0 0 1 4.53.79 10.87 10.87 0 0 1 3.57 2.22 10.29 10.29 0 0 1 2.34 3.39 10.8 10.8 0 0 1 .84 4.29 10.73 10.73 0 0 1 -.84 4.29 10.09 10.09 0 0 1 -2.34 3.39 10.87 10.87 0 0 1 -3.57 2.22 12.53 12.53 0 0 1 -4.53.79 13 13 0 0 1 -2.45-.24 10.56 10.56 0 0 1 -2.39-.75 9.62 9.62 0 0 1 -2.11-1.27 7.29 7.29 0 0 1 -1.63-1.83h-.09v13.6h-2.78zm2.5 10.16a7.57 7.57 0 0 0 .7 3.23 8.11 8.11 0 0 0 1.86 2.67 9.15 9.15 0 0 0 2.83 1.79 9.27 9.27 0 0 0 3.52.66 9.06 9.06 0 0 0 3.53-.66 8.17 8.17 0 0 0 2.73-1.79 7.3 7.3 0 0 0 1.69-2.64 9.28 9.28 0 0 0 0-6.46 7.3 7.3 0 0 0 -1.69-2.64 8.17 8.17 0 0 0 -2.69-1.79 9.06 9.06 0 0 0 -3.53-.66 9.27 9.27 0 0 0 -3.52.66 9.15 9.15 0 0 0 -2.87 1.76 8.11 8.11 0 0 0 -1.9 2.64 7.57 7.57 0 0 0 -.66 3.23z"/><path d="m61.55 27.5a7.7 7.7 0 0 0 3.13 2.95 9.7 9.7 0 0 0 4.38 1 9.34 9.34 0 0 0 2.88-.45 7.46 7.46 0 0 0 2.34-1.24 5.72 5.72 0 0 0 1.58-1.91 5.39 5.39 0 0 0 .58-2.53 4.65 4.65 0 0 0 -.72-2.68 5.57 5.57 0 0 0 -1.92-1.74 14.75 14.75 0 0 0 -2.72-1.17l-3.11-1a31.57 31.57 0 0 1 -3.1-1.1 10.53 10.53 0 0 1 -2.72-1.63 7.23 7.23 0 0 1 -1.92-2.49 8.46 8.46 0 0 1 -.72-3.69 7.6 7.6 0 0 1 .86-3.68 7.87 7.87 0 0 1 2.32-2.64 10.5 10.5 0 0 1 3.36-1.63 14.19 14.19 0 0 1 4-.55 13.52 13.52 0 0 1 5 .9 9.33 9.33 0 0 1 4 3l-2.7 1.78a7.62 7.62 0 0 0 -2.72-2.31 8.22 8.22 0 0 0 -3.63-.69 10.86 10.86 0 0 0 -2.83.37 7.39 7.39 0 0 0 -2.35 1.1 5.75 5.75 0 0 0 -1.6 1.83 5.34 5.34 0 0 0 -.6 2.6 4.86 4.86 0 0 0 1.25 3.58 8.83 8.83 0 0 0 3.13 2 34.55 34.55 0 0 0 4 1.22 21.16 21.16 0 0 1 4.08 1.47 8.81 8.81 0 0 1 3.13 2.58 7.39 7.39 0 0 1 1.29 4.55 8.14 8.14 0 0 1 -.83 3.7 8.36 8.36 0 0 1 -2.25 2.75 10 10 0 0 1 -3.27 1.69 12.74 12.74 0 0 1 -3.85.58 16.19 16.19 0 0 1 -6-1.08 10.9 10.9 0 0 1 -4.68-3.63z"/><path d="m85.44 4.88a1.86 1.86 0 0 1 .6-1.4 2.19 2.19 0 0 1 3 0 1.86 1.86 0 0 1 .6 1.4 1.87 1.87 0 0 1 -.64 1.41 2.22 2.22 0 0 1 -3 0 1.87 1.87 0 0 1 -.56-1.41zm.69 8.06h2.79v20.32h-2.79z"/><path d="m118.32 31.94a13.71 13.71 0 0 1 -1.16 6.12 9.49 9.49 0 0 1 -6.63 5.32 16.56 16.56 0 0 1 -3.62.44 17.47 17.47 0 0 1 -3.17-.28 15.47 15.47 0 0 1 -2.95-.84 12.4 12.4 0 0 1 -2.53-1.34 10 10 0 0 1 -2-1.8l2.18-1.94a8.74 8.74 0 0 0 3.71 2.9 12.16 12.16 0 0 0 4.73.93 10.77 10.77 0 0 0 3.6-.53 7 7 0 0 0 2.41-1.39 6.58 6.58 0 0 0 1.48-1.89 9.25 9.25 0 0 0 .79-2.07 10.29 10.29 0 0 0 .3-2c0-.62.05-1.12.05-1.5v-2.77h-.09a8.46 8.46 0 0 1 -3.27 2.91 10.57 10.57 0 0 1 -4.85 1 12.17 12.17 0 0 1 -4.45-.81 11.42 11.42 0 0 1 -3.64-2.24 10.72 10.72 0 0 1 -2.46-3.33 9.45 9.45 0 0 1 0-8.09 10.48 10.48 0 0 1 2.46-3.3 12 12 0 0 1 8.09-3.08 10.57 10.57 0 0 1 4.85 1.05 8.54 8.54 0 0 1 3.27 2.91h.09v-3.38h2.78zm-2.69-9.1a7.45 7.45 0 0 0 -.67-3.15 8.16 8.16 0 0 0 -1.81-2.55 8.67 8.67 0 0 0 -2.69-1.72 8.91 8.91 0 0 0 -6.63 0 8.67 8.67 0 0 0 -2.69 1.72 8.16 8.16 0 0 0 -1.81 2.55 7.72 7.72 0 0 0 0 6.29 7.93 7.93 0 0 0 1.81 2.55 8.8 8.8 0 0 0 12 0 7.93 7.93 0 0 0 1.86-2.53 7.44 7.44 0 0 0 .63-3.16z"/><path d="m125.14 0h2.78v16.5h.1a7.26 7.26 0 0 1 2.78-2.88 8.41 8.41 0 0 1 4.55-1.21 9.53 9.53 0 0 1 4.08.75 6.54 6.54 0 0 1 2.48 1.95 7.21 7.21 0 0 1 1.25 2.8 15.19 15.19 0 0 1 .35 3.25v12.1h-2.78v-12a11.91 11.91 0 0 0 -.24-2.4 5.92 5.92 0 0 0 -.81-2.09 4.22 4.22 0 0 0 -1.62-1.48 5.9 5.9 0 0 0 -2.71-.55 8.19 8.19 0 0 0 -2.9.51 6.28 6.28 0 0 0 -2.37 1.54 7.55 7.55 0 0 0 -1.58 2.6 10.67 10.67 0 0 0 -.58 3.67v10.2h-2.78z"/><path d="m161.41 15.31h-6.12v13.25a2.75 2.75 0 0 0 .79 2.11 3 3 0 0 0 2.18.75 6.87 6.87 0 0 0 1.6-.2 9.7 9.7 0 0 0 1.55-.51l.23 2.38q-.78.25-1.8.48a8.6 8.6 0 0 1 -1.81.22 7 7 0 0 1 -2.55-.42 4.24 4.24 0 0 1 -2.67-2.77 6.71 6.71 0 0 1 -.3-2v-13.29h-4.64v-2.37h4.64v-5.86h2.78v5.86h6.12z"/><path d="m185.3 29.44a9.24 9.24 0 0 1 -4 3.34 13.49 13.49 0 0 1 -5.27 1 11.91 11.91 0 0 1 -4.45-.79 10.15 10.15 0 0 1 -3.43-2.22 9.62 9.62 0 0 1 -2.21-3.39 11.79 11.79 0 0 1 -.76-4.33 11 11 0 0 1 .79-4.23 10 10 0 0 1 2.22-3.36 10.52 10.52 0 0 1 3.39-2.25 11.14 11.14 0 0 1 4.31-.81 10.87 10.87 0 0 1 4.34.81 9.68 9.68 0 0 1 3.16 2.16 8.9 8.9 0 0 1 1.92 3.06 9.78 9.78 0 0 1 .65 3.47v1.85h-17.96a8.63 8.63 0 0 0 .35 2.13 7.29 7.29 0 0 0 1.28 2.53 7.76 7.76 0 0 0 2.48 2.12 8.13 8.13 0 0 0 4 .88 9.44 9.44 0 0 0 4.13-1 7.36 7.36 0 0 0 3.06-2.64zm-2.13-8.06a5.85 5.85 0 0 0 -.58-2.55 7 7 0 0 0 -1.59-2.09 7.5 7.5 0 0 0 -2.37-1.43 8 8 0 0 0 -2.9-.53 7.5 7.5 0 0 0 -3.78.88 8.17 8.17 0 0 0 -2.38 2 7.9 7.9 0 0 0 -1.26 2.22 6 6 0 0 0 -.37 1.47z"/><path d="m192.16 18.66c0-.38 0-.85 0-1.39s-.06-1.09-.07-1.65 0-1.08-.07-1.56 0-.86 0-1.12h2.79c0 .76.05 1.49.07 2.2a6.4 6.4 0 0 0 .11 1.36 9.22 9.22 0 0 1 2.74-2.95 7.05 7.05 0 0 1 4.08-1.14 5.32 5.32 0 0 1 .81.06l.81.16-.43 2.59a3.78 3.78 0 0 0 -1.07-.17 8.07 8.07 0 0 0 -3.13.55 5.86 5.86 0 0 0 -2.18 1.52 6.3 6.3 0 0 0 -1.28 2.26 9.38 9.38 0 0 0 -.41 2.8v11.08h-2.79z"/><path d="m210.45 18.9h1.2v7.1a3 3 0 0 1 .7-.79 4.24 4.24 0 0 1 .91-.55 4.59 4.59 0 0 1 1-.33 5.61 5.61 0 0 1 1.07-.1 5.4 5.4 0 0 1 1.95.34 4.67 4.67 0 0 1 1.54 1 4.39 4.39 0 0 1 1 1.46 5 5 0 0 1 0 3.71 4.39 4.39 0 0 1 -1 1.46 4.67 4.67 0 0 1 -1.54 1 5.4 5.4 0 0 1 -1.95.34 5.61 5.61 0 0 1 -1.07-.1 4.59 4.59 0 0 1 -1-.33 3.87 3.87 0 0 1 -.91-.55 3.06 3.06 0 0 1 -.7-.78v1.53h-1.2zm1.08 10a3.31 3.31 0 0 0 .3 1.39 3.46 3.46 0 0 0 .82 1.14 4.14 4.14 0 0 0 1.22.77 4 4 0 0 0 1.53.29 3.92 3.92 0 0 0 1.52-.29 3.62 3.62 0 0 0 1.16-.77 3.23 3.23 0 0 0 .73-1.14 4 4 0 0 0 0-2.79 3.23 3.23 0 0 0 -.73-1.14 3.62 3.62 0 0 0 -1.16-.77 3.92 3.92 0 0 0 -1.52-.29 4 4 0 0 0 -1.53.29 4.14 4.14 0 0 0 -1.22.77 3.46 3.46 0 0 0 -.82 1.14 3.32 3.32 0 0 0 -.3 1.38z"/><path d="m225.55 36a3.31 3.31 0 0 1 -.94 1.35 2.45 2.45 0 0 1 -1.6.49 4 4 0 0 1 -.6 0 5.61 5.61 0 0 1 -.59-.13l.13-1.06.53.14a2 2 0 0 0 .55.07 1.33 1.33 0 0 0 .57-.13 1.61 1.61 0 0 0 .43-.35 2.47 2.47 0 0 0 .31-.46 5 5 0 0 0 .23-.53l.84-2-3.77-8.81h1.36l3.06 7.39 3-7.39h1.28z"/><path d="m249.45 31.16a6 6 0 0 1 -2.37 1.84 7.32 7.32 0 0 1 -2.9.57 8.18 8.18 0 0 1 -3-.53 6.55 6.55 0 0 1 -2.31-1.46 6.68 6.68 0 0 1 -1.5-2.24 7.37 7.37 0 0 1 -.54-2.84 7.25 7.25 0 0 1 .54-2.83 6.78 6.78 0 0 1 1.5-2.24 7 7 0 0 1 2.33-1.43 8.18 8.18 0 0 1 3-.53 7.43 7.43 0 0 1 2.69.48 5.3 5.3 0 0 1 2.19 1.63l-1.08.85a3.84 3.84 0 0 0 -1.69-1.38 5.39 5.39 0 0 0 -2.11-.44 6.44 6.44 0 0 0 -2.5.46 5.41 5.41 0 0 0 -3.09 3.13 6.4 6.4 0 0 0 -.42 2.34 6.48 6.48 0 0 0 .42 2.34 5.6 5.6 0 0 0 1.2 1.88 5.52 5.52 0 0 0 1.87 1.24 6.63 6.63 0 0 0 2.5.46 4.94 4.94 0 0 0 1.12-.13 5.44 5.44 0 0 0 2.18-1 4.15 4.15 0 0 0 .88-.94z"/><path d="m251 26.54a7.25 7.25 0 0 1 .54-2.83 6.78 6.78 0 0 1 1.5-2.24 7 7 0 0 1 2.26-1.47 8.22 8.22 0 0 1 3-.53 8.13 8.13 0 0 1 3 .53 7.18 7.18 0 0 1 2.32 1.47 6.78 6.78 0 0 1 1.5 2.24 7.25 7.25 0 0 1 .54 2.83 7.37 7.37 0 0 1 -.54 2.84 6.54 6.54 0 0 1 -3.82 3.7 8.13 8.13 0 0 1 -3 .53 8.22 8.22 0 0 1 -3-.53 6.55 6.55 0 0 1 -2.3-1.46 6.68 6.68 0 0 1 -1.5-2.24 7.37 7.37 0 0 1 -.5-2.84zm1.32 0a6.48 6.48 0 0 0 .42 2.34 5.6 5.6 0 0 0 1.2 1.88 5.52 5.52 0 0 0 1.84 1.24 6.66 6.66 0 0 0 2.5.46 6.57 6.57 0 0 0 2.49-.46 5.47 5.47 0 0 0 3.1-3.13 6.48 6.48 0 0 0 .42-2.34 6.4 6.4 0 0 0 -.42-2.34 5.38 5.38 0 0 0 -1.21-1.88 5.52 5.52 0 0 0 -1.89-1.25 6.39 6.39 0 0 0 -2.49-.46 6.47 6.47 0 0 0 -2.5.46 5.41 5.41 0 0 0 -3.09 3.13 6.4 6.4 0 0 0 -.42 2.35z"/><path d="m280.27 32.39a9.6 9.6 0 0 1 -2.57.94 13.72 13.72 0 0 1 -2.72.28 8.13 8.13 0 0 1 -3-.53 6.54 6.54 0 0 1 -3.82-3.7 7.37 7.37 0 0 1 -.54-2.84 7.25 7.25 0 0 1 .54-2.83 6.78 6.78 0 0 1 1.5-2.24 7.18 7.18 0 0 1 2.34-1.47 8.13 8.13 0 0 1 3-.53 7.09 7.09 0 0 1 5.11 1.86l-1 1a4.09 4.09 0 0 0 -.79-.67 5.48 5.48 0 0 0 -1-.53 7.41 7.41 0 0 0 -1.16-.35 6 6 0 0 0 -1.18-.12 6.39 6.39 0 0 0 -2.49.46 5.47 5.47 0 0 0 -3.1 3.13 6.4 6.4 0 0 0 -.42 2.34 6.48 6.48 0 0 0 .42 2.34 5.62 5.62 0 0 0 1.21 1.88 5.52 5.52 0 0 0 1.89 1.19 6.57 6.57 0 0 0 2.49.46 12.22 12.22 0 0 0 2.15-.18 5.76 5.76 0 0 0 1.82-.62v-4.51h-3.41v-1.15h4.73z"/><path d="m284.16 19.81h1.7l8.63 11.78v-11.78h1.32v13.45h-1.7l-8.63-11.78v11.78h-1.32z"/><path d="m299.74 19.81h1.32v13.45h-1.32z"/><path d="m308.09 21h-4.85v-1.19h11v1.19h-4.85v12.26h-1.32z"/><path d="m316.44 19.81h8.68v1.19h-7.36v4.79h6.89v1.14h-6.89v5.24h7.68v1.14h-9z"/><path d="m328.32 19.81h8.68v1.19h-7.35v4.79h6.89v1.14h-6.89v5.24h7.67v1.14h-9z"/></g></svg>